<svg width="30" height="30" viewBox="0 0 30 30" fill="none" xmlns="http://www.w3.org/2000/svg"><circle cx="15" cy="15" r="15" fill="black"></circle><path d="M22.0003 14.7659V12.6087L21.9999 12.6086C20.7061 12.1772 20.7057 12.1771 19.4115 10.8829C18.376 9.84744 18.1172 8.43805 18.1172 7.86279H15.5285V19.9433C15.5285 21.669 13.8027 22.1005 12.9398 22.1005C10.8689 22.1005 10.3512 20.6623 10.3512 19.9433C10.3512 17.182 12.3646 16.7793 13.3713 16.9231V15.1974C11.3003 15.1974 9.91979 16.6355 9.48839 17.3546C8.10776 20.1158 8.91313 22.2443 9.48839 22.9634C10.869 24.6891 13.5152 24.5453 14.6657 24.2577C17.427 23.2222 18.1173 20.95 18.1173 19.9433V12.6087C19.1528 14.3345 21.1374 14.7659 22.0003 14.7659Z" fill="#E03855"></path><path d="M20.2742 13.9031V11.7459L20.2739 11.7458C18.98 11.3145 18.9796 11.3143 17.6854 10.0201C16.65 8.98465 16.3911 7.57526 16.3911 7H13.8024V19.0805C13.8024 20.8062 12.0766 21.2377 11.2138 21.2377C9.14282 21.2377 8.62508 19.7995 8.62508 19.0805C8.62508 16.3192 10.6385 15.9165 11.6452 16.0603V14.3346C9.57426 14.3346 8.19372 15.7727 7.76231 16.4918C6.38169 19.253 7.18705 21.3815 7.76231 22.1006C9.14294 23.8264 11.7891 23.6825 12.9397 23.3949C15.7009 22.3594 16.3912 20.0872 16.3912 19.0805V11.7459C17.4267 13.4717 19.4113 13.9031 20.2742 13.9031Z" fill="#80C7CF"></path><path d="M21.137 13.9031V11.7459L21.1366 11.7458C19.8428 11.3145 19.8424 11.3143 18.5482 10.0201C17.5128 8.98465 17.2539 7.57526 17.2539 7H14.6652V19.0805C14.6652 20.8062 12.9394 21.2377 12.0765 21.2377C10.0056 21.2377 9.48787 19.7995 9.48787 19.0805C9.48787 16.3192 11.5013 15.9165 12.508 16.0603V14.3346C10.4371 14.3346 9.05651 15.7727 8.62511 16.4918C7.24448 19.253 8.04985 21.3815 8.62511 22.1006C10.0057 23.8264 12.6519 23.6825 13.8024 23.3949C16.5637 22.3594 17.254 20.0872 17.254 19.0805V11.7459C18.2895 13.4717 20.2741 13.9031 21.137 13.9031Z" fill="white"></path></svg>